# xmcd
#
# Track frame offsets:
#	150
#	18586
#	37224
#	51514
#	69205
#	83007
#	112669
#	131081
#
# Disc length: 1928 seconds
#
# Revision: 0
# Processed by: cddbd v1.4PL0 Copyright (c) Steve Scherf et al.
# Submitted via: audiograbber 1.81.01
#
DISCID=66078608
DTITLE=Dick James - Pure Blues
DYEAR=2002
DGENRE=Blues
TTITLE0=All That Jazz
TTITLE1=Daylight Comes
TTITLE2=She Like To Boogie
TTITLE3=Put Blues On My Mind
TTITLE4=Just Groovin
TTITLE5=Time Traveler
TTITLE6=Walk To The River
TTITLE7=My Kathleen My Love (my ciesta)
EXTD=
EXTT0=
EXTT1=
EXTT2=
EXTT3=
EXTT4=
EXTT5=
EXTT6=
EXTT7=
PLAYORDER=
